<svg width="113" height="34" viewBox="0 0 113 34" fill="none" xmlns="http://www.w3.org/2000/svg">
<path d="M25.346 27.94V33H1.61V28.998L14.398 16.854C15.8393 15.474 16.8053 14.278 17.296 13.266C17.8173 12.2233 18.078 11.196 18.078 10.184C18.078 8.68133 17.572 7.53133 16.56 6.734C15.548 5.93667 14.0607 5.538 12.098 5.538C8.81667 5.538 6.302 6.65733 4.554 8.896L0.368 5.676C1.62533 3.98933 3.312 2.686 5.428 1.766C7.57467 0.815332 9.96667 0.339998 12.604 0.339998C16.1 0.339998 18.8907 1.168 20.976 2.824C23.0613 4.48 24.104 6.734 24.104 9.586C24.104 11.334 23.736 12.9747 23 14.508C22.264 16.0413 20.8533 17.7893 18.768 19.752L10.166 27.94H25.346ZM42.0947 33.46C39.5187 33.46 37.2187 32.816 35.1947 31.528C33.1707 30.2093 31.576 28.308 30.4107 25.824C29.2453 23.3093 28.6627 20.3347 28.6627 16.9C28.6627 13.4653 29.2453 10.506 30.4107 8.022C31.576 5.50733 33.1707 3.606 35.1947 2.318C37.2187 0.999331 39.5187 0.339998 42.0947 0.339998C44.6707 0.339998 46.9707 0.999331 48.9947 2.318C51.0493 3.606 52.6593 5.50733 53.8247 8.022C54.99 10.506 55.5727 13.4653 55.5727 16.9C55.5727 20.3347 54.99 23.3093 53.8247 25.824C52.6593 28.308 51.0493 30.2093 48.9947 31.528C46.9707 32.816 44.6707 33.46 42.0947 33.46ZM42.0947 28.262C44.3947 28.262 46.204 27.3113 47.5227 25.41C48.872 23.5087 49.5467 20.672 49.5467 16.9C49.5467 13.128 48.872 10.2913 47.5227 8.39C46.204 6.48867 44.3947 5.538 42.0947 5.538C39.8253 5.538 38.016 6.48867 36.6667 8.39C35.348 10.2913 34.6887 13.128 34.6887 16.9C34.6887 20.672 35.348 23.5087 36.6667 25.41C38.016 27.3113 39.8253 28.262 42.0947 28.262ZM73.0458 33.46C70.4698 33.46 68.1698 32.816 66.1458 31.528C64.1218 30.2093 62.5272 28.308 61.3618 25.824C60.1965 23.3093 59.6138 20.3347 59.6138 16.9C59.6138 13.4653 60.1965 10.506 61.3618 8.022C62.5272 5.50733 64.1218 3.606 66.1458 2.318C68.1698 0.999331 70.4698 0.339998 73.0458 0.339998C75.6218 0.339998 77.9218 0.999331 79.9458 2.318C82.0005 3.606 83.6105 5.50733 84.7758 8.022C85.9412 10.506 86.5238 13.4653 86.5238 16.9C86.5238 20.3347 85.9412 23.3093 84.7758 25.824C83.6105 28.308 82.0005 30.2093 79.9458 31.528C77.9218 32.816 75.6218 33.46 73.0458 33.46ZM73.0458 28.262C75.3458 28.262 77.1552 27.3113 78.4738 25.41C79.8232 23.5087 80.4978 20.672 80.4978 16.9C80.4978 13.128 79.8232 10.2913 78.4738 8.39C77.1552 6.48867 75.3458 5.538 73.0458 5.538C70.7765 5.538 68.9672 6.48867 67.6178 8.39C66.2992 10.2913 65.6398 13.128 65.6398 16.9C65.6398 20.672 66.2992 23.5087 67.6178 25.41C68.9672 27.3113 70.7765 28.262 73.0458 28.262ZM112.962 19.2H104.82V27.25H99.8976V19.2H91.7556V14.6H99.8976V6.55H104.82V14.6H112.962V19.2Z" fill="#FF0008"/>
</svg>
