<svg width="155" height="62" viewBox="0 0 155 62" fill="none" xmlns="http://www.w3.org/2000/svg">
<path d="M29.412 25.654C34.9733 26.342 39.216 28.234 42.14 31.33C45.064 34.426 46.526 38.296 46.526 42.94C46.526 46.4373 45.6373 49.6193 43.86 52.486C42.0827 55.3527 39.388 57.646 35.776 59.366C32.2213 61.0287 27.864 61.86 22.704 61.86C18.404 61.86 14.2473 61.258 10.234 60.054C6.278 58.7927 2.89533 57.0727 0.086 54.894L4.902 46.208C7.08067 48.0427 9.718 49.5047 12.814 50.594C15.9673 51.626 19.2067 52.142 22.532 52.142C26.488 52.142 29.584 51.3393 31.82 49.734C34.1133 48.0713 35.26 45.8353 35.26 43.026C35.26 40.2167 34.1707 38.038 31.992 36.49C29.8707 34.8847 26.6027 34.082 22.188 34.082H16.684V26.428L30.358 10.174H3.01V0.799996H44.032V8.282L29.412 25.654ZM107.503 47.326H96.8387V61H86.0027V47.326H52.9787V39.586L82.6487 0.799996H94.6027L66.6527 37.866H86.3467V25.74H96.8387V37.866H107.503V47.326ZM154.5 35.2H139.278V50.25H130.076V35.2H114.854V26.6H130.076V11.55H139.278V26.6H154.5V35.2Z" fill="#FF0008"/>
</svg>
