<svg width="153" height="63" viewBox="0 0 153 63" fill="none" xmlns="http://www.w3.org/2000/svg">
<path d="M47.192 1.8V9.282L23.8 62H11.846L34.464 11.26H10.814V21.494H0.408V1.8H47.192ZM77.5386 62.86C72.7226 62.86 68.4226 61.656 64.6386 59.248C60.8546 56.7827 57.8732 53.228 55.6946 48.584C53.5159 43.8827 52.4266 38.3213 52.4266 31.9C52.4266 25.4787 53.5159 19.946 55.6946 15.302C57.8732 10.6007 60.8546 7.046 64.6386 4.638C68.4226 2.17266 72.7226 0.939997 77.5386 0.939997C82.3546 0.939997 86.6546 2.17266 90.4386 4.638C94.2799 7.046 97.2899 10.6007 99.4686 15.302C101.647 19.946 102.737 25.4787 102.737 31.9C102.737 38.3213 101.647 43.8827 99.4686 48.584C97.2899 53.228 94.2799 56.7827 90.4386 59.248C86.6546 61.656 82.3546 62.86 77.5386 62.86ZM77.5386 53.142C81.8386 53.142 85.2212 51.3647 87.6866 47.81C90.2092 44.2553 91.4706 38.952 91.4706 31.9C91.4706 24.848 90.2092 19.5447 87.6866 15.99C85.2212 12.4353 81.8386 10.658 77.5386 10.658C73.2959 10.658 69.9132 12.4353 67.3906 15.99C64.9252 19.5447 63.6926 24.848 63.6926 31.9C63.6926 38.952 64.9252 44.2553 67.3906 47.81C69.9132 51.3647 73.2959 53.142 77.5386 53.142ZM152.164 36.2H136.942V51.25H127.74V36.2H112.518V27.6H127.74V12.55H136.942V27.6H152.164V36.2Z" fill="#FF0008"/>
</svg>
