<svg width="24" height="24" viewBox="0 0 24 24" fill="none" xmlns="http://www.w3.org/2000/svg">
<path d="M19.586 3H15C14.7348 3 14.4804 2.89464 14.2929 2.70711C14.1054 2.51957 14 2.26522 14 2C14 1.73478 14.1054 1.48043 14.2929 1.29289C14.4804 1.10536 14.7348 1 15 1H22C22.2652 1 22.5196 1.10536 22.7071 1.29289C22.8946 1.48043 23 1.73478 23 2V9C23 9.26522 22.8946 9.51957 22.7071 9.70711C22.5196 9.89464 22.2652 10 22 10C21.7348 10 21.4804 9.89464 21.2929 9.70711C21.1054 9.51957 21 9.26522 21 9V4.414L15.707 9.707C15.5184 9.88916 15.2658 9.98995 15.0036 9.98767C14.7414 9.9854 14.4906 9.88023 14.3052 9.69482C14.1198 9.50941 14.0146 9.2586 14.0123 8.9964C14.01 8.7342 14.1108 8.4816 14.293 8.293L19.586 3ZM3 4.414V9C3 9.26522 2.89464 9.51957 2.70711 9.70711C2.51957 9.89464 2.26522 10 2 10C1.73478 10 1.48043 9.89464 1.29289 9.70711C1.10536 9.51957 1 9.26522 1 9V2C1 1.73478 1.10536 1.48043 1.29289 1.29289C1.48043 1.10536 1.73478 1 2 1H9C9.26522 1 9.51957 1.10536 9.70711 1.29289C9.89464 1.48043 10 1.73478 10 2C10 2.26522 9.89464 2.51957 9.70711 2.70711C9.51957 2.89464 9.26522 3 9 3H4.414L9.707 8.293C9.88916 8.4816 9.98995 8.7342 9.98767 8.9964C9.9854 9.2586 9.88023 9.50941 9.69482 9.69482C9.50941 9.88023 9.2586 9.9854 8.9964 9.98767C8.7342 9.98995 8.4816 9.88916 8.293 9.707L3 4.414ZM19.586 21L14.293 15.707C14.1108 15.5184 14.01 15.2658 14.0123 15.0036C14.0146 14.7414 14.1198 14.4906 14.3052 14.3052C14.4906 14.1198 14.7414 14.0146 15.0036 14.0123C15.2658 14.01 15.5184 14.1108 15.707 14.293L21 19.586V15C21 14.7348 21.1054 14.4804 21.2929 14.2929C21.4804 14.1054 21.7348 14 22 14C22.2652 14 22.5196 14.1054 22.7071 14.2929C22.8946 14.4804 23 14.7348 23 15V22C23 22.2652 22.8946 22.5196 22.7071 22.7071C22.5196 22.8946 22.2652 23 22 23H15C14.7348 23 14.4804 22.8946 14.2929 22.7071C14.1054 22.5196 14 22.2652 14 22C14 21.7348 14.1054 21.4804 14.2929 21.2929C14.4804 21.1054 14.7348 21 15 21H19.586ZM3 19.586L8.293 14.293C8.4816 14.1108 8.7342 14.01 8.9964 14.0123C9.2586 14.0146 9.50941 14.1198 9.69482 14.3052C9.88023 14.4906 9.9854 14.7414 9.98767 15.0036C9.98995 15.2658 9.88916 15.5184 9.707 15.707L4.414 21H9C9.26522 21 9.51957 21.1054 9.70711 21.2929C9.89464 21.4804 10 21.7348 10 22C10 22.2652 9.89464 22.5196 9.70711 22.7071C9.51957 22.8946 9.26522 23 9 23H2C1.73478 23 1.48043 22.8946 1.29289 22.7071C1.10536 22.5196 1 22.2652 1 22V15C1 14.7348 1.10536 14.4804 1.29289 14.2929C1.48043 14.1054 1.73478 14 2 14C2.26522 14 2.51957 14.1054 2.70711 14.2929C2.89464 14.4804 3 14.7348 3 15V19.586Z" fill="white"/>
</svg>
