<svg width="220" height="120" viewBox="0 0 220 120" fill="none" xmlns="http://www.w3.org/2000/svg">
<rect width="220" height="120" rx="16" fill="#212121"/>
<rect x="0.5" y="0.5" width="219" height="119" rx="15.5" stroke="white" stroke-opacity="0.1"/>
<g clip-path="url(#clip0_35_137)">
<path fill-rule="evenodd" clip-rule="evenodd" d="M159.605 59.5038L168.187 68.2317H163.847L156.766 61.0231H152.917V68.2317H149.449V51.3677H152.917V58.4883H156.766L163.761 51.3677H167.594L159.605 59.5038Z" fill="white"/>
<path fill-rule="evenodd" clip-rule="evenodd" d="M143.071 64.5375V51.3677H146.248V68.2317H142.093L132.404 55.2499V68.2317H129.199V51.3677H133.339L143.071 64.5375Z" fill="white"/>
<path fill-rule="evenodd" clip-rule="evenodd" d="M115.245 51.3677H119.023L127.31 68.2277H123.834L122.047 64.5375H112.248L110.536 68.2277H106.939L115.249 51.3677H115.245ZM113.576 61.8827H120.751L117.15 54.4142L113.576 61.8827Z" fill="white"/>
<path fill-rule="evenodd" clip-rule="evenodd" d="M106.279 56.0295C106.279 56.9051 106.149 57.6247 105.894 58.1845C105.639 58.7442 105.061 59.196 104.621 59.5318C105.152 59.8397 105.803 60.2955 106.122 60.9032C106.44 61.5109 106.597 62.3225 106.597 63.338C106.597 64.3536 106.44 65.1772 106.122 65.8049C105.803 66.4366 105.364 66.9324 104.798 67.2922C104.233 67.652 103.553 67.8999 102.76 68.0318C101.966 68.1638 101.102 68.2277 100.164 68.2277H90.2744V51.3677H100.164C101.04 51.3677 101.853 51.4276 102.599 51.5516C103.345 51.6755 103.993 51.9074 104.535 52.2553C105.077 52.6031 105.505 53.0789 105.815 53.6866C106.126 54.2943 106.279 55.0739 106.279 56.0255V56.0295ZM93.6324 58.4923H100.651C102.135 58.4923 103.019 57.8646 103.019 56.2694C103.019 54.938 102.072 54.1024 100.808 54.1024H93.6363V58.4963L93.6324 58.4923ZM93.6324 60.7153V65.3891H100.655C102.167 65.3891 103.105 64.7694 103.16 63.0982C103.211 61.5309 102.34 60.7153 100.67 60.7153H93.6324Z" fill="white"/>
<path fill-rule="evenodd" clip-rule="evenodd" d="M79.7253 62.0347L74.9025 68.2317H71.1675L77.9894 59.4639L71.7095 51.3677H75.2402L79.7253 57.153L84.2262 51.3677H87.8473L81.5437 59.4639L88.3421 68.2317H84.5286L79.7253 62.0347Z" fill="white"/>
<path fill-rule="evenodd" clip-rule="evenodd" d="M66.168 61.0231H58.1128V65.3851H66.7139L69.5102 68.2317H54.6685V51.3677H69.4631L66.6824 54.2023H58.1128V58.4883H66.168V61.0231Z" fill="white"/>
<path fill-rule="evenodd" clip-rule="evenodd" d="M39.6696 63.0184V68.2319H36.2449V51.3719L45.8985 51.2359C46.7272 51.224 47.5323 51.3119 48.3099 51.4678C49.0876 51.6198 49.7788 51.9196 50.3836 52.3554C50.9884 52.7952 51.4676 53.3989 51.821 54.1666C52.1745 54.9342 52.3552 55.9257 52.3552 57.1412C52.3552 58.3566 52.1745 59.3641 51.8093 60.1158C51.4479 60.8674 50.9649 61.4511 50.36 61.859C49.7552 62.2668 49.064 62.5386 48.2864 62.6786C47.5087 62.8185 46.7115 62.8705 45.8946 62.8865L39.6657 63.0224L39.6696 63.0184ZM48.9658 57.1572C48.9658 55.482 48.2432 54.2585 46.3619 54.2585H39.6696V60.0518H46.3933C48.2746 60.0518 48.9619 58.8364 48.9619 57.1572H48.9658Z" fill="white"/>
<path fill-rule="evenodd" clip-rule="evenodd" d="M22.3104 51.3677H26.0886L34.3755 68.2277H30.8997L29.1127 64.5375H19.3099L17.5975 68.2277H14L22.3104 51.3677ZM20.6413 61.8827H27.8167L24.2152 54.4142L20.6413 61.8827Z" fill="white"/>
<path fill-rule="evenodd" clip-rule="evenodd" d="M197.799 67.8481L189.3 76.5L180.802 67.8481L189.3 59.1961L197.799 67.8481ZM172.601 59.5L177.648 64.6376L189.3 52.7752L200.953 64.6376L206 59.5L189.3 42.5L172.601 59.5Z" fill="#D40000"/>
</g>
<defs>
<clipPath id="clip0_35_137">
<rect width="192" height="35" fill="white" transform="translate(14 42)"/>
</clipPath>
</defs>
</svg>
