<svg width="24" height="24" viewBox="0 0 24 24" fill="none" xmlns="http://www.w3.org/2000/svg">
<path d="M21 5C21 4.44772 21.4477 4 22 4C22.5523 4 23 4.44772 23 5V22C23 22.7773 22.152 23.2574 21.4855 22.8575L17 20.1662L12.5145 22.8575C12.1978 23.0475 11.8022 23.0475 11.4855 22.8575L7 20.1662L2.5145 22.8575C1.84797 23.2574 1 22.7773 1 22V5C1 4.64874 1.1843 4.32323 1.4855 4.14251L6.4855 1.14251C6.81688 0.943682 7.23316 0.953588 7.5547 1.16795L10.5547 3.16795C11.0142 3.4743 11.1384 4.09517 10.8321 4.5547C10.5257 5.01423 9.90483 5.1384 9.4453 4.83205L6.97185 3.18308L3 5.56619V20.2338L6.4855 18.1425C6.80219 17.9525 7.19781 17.9525 7.5145 18.1425L12 20.8338L16.4855 18.1425C16.8022 17.9525 17.1978 17.9525 17.5145 18.1425L21 20.2338V5ZM8 15C8 15.5523 7.55228 16 7 16C6.44772 16 6 15.5523 6 15V6C6 5.44772 6.44772 5 7 5C7.55228 5 8 5.44772 8 6V15ZM13 17C13 17.5523 12.5523 18 12 18C11.4477 18 11 17.5523 11 17V10C11 9.44771 11.4477 9 12 9C12.5523 9 13 9.44771 13 10V17ZM18 15C18 15.5523 17.5523 16 17 16C16.4477 16 16 15.5523 16 15V13C16 12.4477 16.4477 12 17 12C17.5523 12 18 12.4477 18 13V15ZM18.8163 7.6688L16.695 9.71905C16.3074 10.0936 15.6926 10.0936 15.305 9.71905L13.1837 7.6688C11.6054 6.14338 11.6054 3.65561 13.1837 2.13019C14.7429 0.623269 17.2571 0.623269 18.8163 2.13019C20.3946 3.65561 20.3946 6.14338 18.8163 7.6688ZM17.4264 6.2307C18.1912 5.49147 18.1912 4.30752 17.4264 3.56829C16.6424 2.81057 15.3576 2.81057 14.5736 3.56829C13.8088 4.30752 13.8088 5.49147 14.5736 6.2307L16 7.60927L17.4264 6.2307Z" fill="white"/>
</svg>
