<svg width="48" height="48" viewBox="0 0 48 48" fill="none" xmlns="http://www.w3.org/2000/svg">
<path d="M9.99463 30C11.0992 30 11.9946 30.8954 11.9946 32V40C11.9946 41.1046 12.8901 42 13.9946 42C15.1046 42 16 41.1046 16 40V32C16 30.8954 16.8954 30 18 30H20.171C22.6059 30 24.9572 30.8884 26.7838 32.4986L31.3226 36.4997C32.1511 37.2302 32.2307 38.494 31.5003 39.3226C30.7698 40.1511 29.506 40.2307 28.6774 39.5003L24.1387 35.4992C23.0427 34.5331 21.632 34 20.171 34H20V40C20 43.3137 17.3137 46 14 46C10.6809 46 7.99463 43.3137 7.99463 40V34H5.49976C4.67597 34 3.93646 33.4949 3.63679 32.7275C2.55964 29.9694 2 27.0218 2 24C2 20.9782 2.55964 18.0306 3.63679 15.2725C3.93646 14.5051 4.67597 14 5.49976 14H20.0313C21.5552 14 23.0219 13.4202 24.1339 12.3782L34.6325 2.54059C35.0031 2.19327 35.4921 2 36 2H38C42.4183 2 46 5.58172 46 10V38C46 42.4183 42.4183 46 38 46H36C34.8954 46 34 45.1046 34 44V14C34 12.8954 34.8954 12 36 12C37.1046 12 38 12.8954 38 14V42C40.2091 42 42 40.2091 42 38V10C42 7.79086 40.2091 6 38 6H36.7906L26.8689 15.297C25.0157 17.0336 22.5711 18 20.0313 18H6.91501C6.31142 19.9219 6 21.9383 6 24C6 26.0617 6.31142 28.0781 6.91501 30H9.99463ZM19.7889 26.8944C19.2949 27.8824 18.0935 28.2828 17.1056 27.7889C16.1176 27.2949 15.7172 26.0935 16.2111 25.1056L18.2111 21.1056C18.7051 20.1176 19.9065 19.7172 20.8944 20.2111C21.8824 20.7051 22.2828 21.9065 21.7889 22.8944L19.7889 26.8944ZM13.7889 26.8944C13.2949 27.8824 12.0935 28.2828 11.1056 27.7889C10.1176 27.2949 9.71717 26.0935 10.2111 25.1056L12.2111 21.1056C12.7051 20.1176 13.9065 19.7172 14.8944 20.2111C15.8824 20.7051 16.2828 21.9065 15.7889 22.8944L13.7889 26.8944Z" fill="#FF0008"/>
</svg>
