<svg width="24" height="24" viewBox="0 0 24 24" fill="none" xmlns="http://www.w3.org/2000/svg">
<g clip-path="url(#clip0_35_39)">
<path d="M16.4599 18.5034C15.9395 17.983 15.1754 17.7905 14.4706 18.0021L11.2876 18.9578C10.7587 19.1166 10.2011 18.8165 10.0423 18.2876C9.88349 17.7586 10.1835 17.2011 10.7125 17.0422L13.8954 16.0866C15.3051 15.6633 16.8334 16.0484 17.8741 17.0892L19.4162 18.6313C20.1947 19.4097 20.1947 20.6718 19.4162 21.4502L17.17 23.6965C16.9916 23.8749 16.7525 23.9792 16.5004 23.9887C12.1077 24.1538 7.82728 22.5135 4.65694 19.3431C1.48661 16.1728 -0.153781 11.8923 0.011354 7.49965C0.020829 7.24761 0.125195 7.00846 0.303541 6.83011L2.54983 4.58383C3.32826 3.80539 4.59035 3.80539 5.36878 4.58383L6.91089 6.12593C7.95165 7.1667 8.33677 8.69495 7.91351 10.1046L6.95783 13.2876C6.79901 13.8165 6.24145 14.1166 5.7125 13.9578C5.18354 13.7989 4.88349 13.2414 5.04231 12.7124L5.99799 9.5295C6.20962 8.82465 6.01706 8.06053 5.49668 7.54015L3.95931 6.00277L2.00072 7.96136C1.96322 11.667 3.39157 15.2493 6.07116 17.9289C8.75074 20.6085 12.3331 22.0368 16.0387 21.9993L17.9973 20.0408L16.4599 18.5034ZM24.0001 12C24.0001 12.5523 23.5524 13 23.0001 13C22.4478 13 22.0001 12.5523 22.0001 12C22.0001 6.47715 17.5229 2 12.0001 2C11.4478 2 11.0001 1.55228 11.0001 1C11.0001 0.447715 11.4478 0 12.0001 0C18.6275 0 24.0001 5.37258 24.0001 12ZM20.0001 12C20.0001 12.5523 19.5524 13 19.0001 13C18.4478 13 18.0001 12.5523 18.0001 12C18.0001 8.68629 15.3138 6 12.0001 6C11.4478 6 11.0001 5.55228 11.0001 5C11.0001 4.44772 11.4478 4 12.0001 4C16.4183 4 20.0001 7.58172 20.0001 12ZM16.0001 12C16.0001 12.5523 15.5524 13 15.0001 13C14.4478 13 14.0001 12.5523 14.0001 12C14.0001 10.8954 13.1046 10 12.0001 10C11.4478 10 11.0001 9.55229 11.0001 9C11.0001 8.44771 11.4478 8 12.0001 8C14.2092 8 16.0001 9.79086 16.0001 12Z" fill="#FF0008"/>
</g>
<defs>
<clipPath id="clip0_35_39">
<rect width="24" height="24" fill="white"/>
</clipPath>
</defs>
</svg>
