<svg width="56" height="56" viewBox="0 0 56 56" fill="none" xmlns="http://www.w3.org/2000/svg">
<rect width="56" height="56" rx="28" fill="#FF0008"/>
<path d="M35.586 19H31C30.7348 19 30.4804 18.8946 30.2929 18.7071C30.1054 18.5196 30 18.2652 30 18C30 17.7348 30.1054 17.4804 30.2929 17.2929C30.4804 17.1054 30.7348 17 31 17H38C38.2652 17 38.5196 17.1054 38.7071 17.2929C38.8946 17.4804 39 17.7348 39 18V25C39 25.2652 38.8946 25.5196 38.7071 25.7071C38.5196 25.8946 38.2652 26 38 26C37.7348 26 37.4804 25.8946 37.2929 25.7071C37.1054 25.5196 37 25.2652 37 25V20.414L31.707 25.707C31.5184 25.8892 31.2658 25.99 31.0036 25.9877C30.7414 25.9854 30.4906 25.8802 30.3052 25.6948C30.1198 25.5094 30.0146 25.2586 30.0123 24.9964C30.01 24.7342 30.1108 24.4816 30.293 24.293L35.586 19ZM19 20.414V25C19 25.2652 18.8946 25.5196 18.7071 25.7071C18.5196 25.8946 18.2652 26 18 26C17.7348 26 17.4804 25.8946 17.2929 25.7071C17.1054 25.5196 17 25.2652 17 25V18C17 17.7348 17.1054 17.4804 17.2929 17.2929C17.4804 17.1054 17.7348 17 18 17H25C25.2652 17 25.5196 17.1054 25.7071 17.2929C25.8946 17.4804 26 17.7348 26 18C26 18.2652 25.8946 18.5196 25.7071 18.7071C25.5196 18.8946 25.2652 19 25 19H20.414L25.707 24.293C25.8892 24.4816 25.99 24.7342 25.9877 24.9964C25.9854 25.2586 25.8802 25.5094 25.6948 25.6948C25.5094 25.8802 25.2586 25.9854 24.9964 25.9877C24.7342 25.99 24.4816 25.8892 24.293 25.707L19 20.414ZM35.586 37L30.293 31.707C30.1108 31.5184 30.01 31.2658 30.0123 31.0036C30.0146 30.7414 30.1198 30.4906 30.3052 30.3052C30.4906 30.1198 30.7414 30.0146 31.0036 30.0123C31.2658 30.01 31.5184 30.1108 31.707 30.293L37 35.586V31C37 30.7348 37.1054 30.4804 37.2929 30.2929C37.4804 30.1054 37.7348 30 38 30C38.2652 30 38.5196 30.1054 38.7071 30.2929C38.8946 30.4804 39 30.7348 39 31V38C39 38.2652 38.8946 38.5196 38.7071 38.7071C38.5196 38.8946 38.2652 39 38 39H31C30.7348 39 30.4804 38.8946 30.2929 38.7071C30.1054 38.5196 30 38.2652 30 38C30 37.7348 30.1054 37.4804 30.2929 37.2929C30.4804 37.1054 30.7348 37 31 37H35.586ZM19 35.586L24.293 30.293C24.4816 30.1108 24.7342 30.01 24.9964 30.0123C25.2586 30.0146 25.5094 30.1198 25.6948 30.3052C25.8802 30.4906 25.9854 30.7414 25.9877 31.0036C25.99 31.2658 25.8892 31.5184 25.707 31.707L20.414 37H25C25.2652 37 25.5196 37.1054 25.7071 37.2929C25.8946 37.4804 26 37.7348 26 38C26 38.2652 25.8946 38.5196 25.7071 38.7071C25.5196 38.8946 25.2652 39 25 39H18C17.7348 39 17.4804 38.8946 17.2929 38.7071C17.1054 38.5196 17 38.2652 17 38V31C17 30.7348 17.1054 30.4804 17.2929 30.2929C17.4804 30.1054 17.7348 30 18 30C18.2652 30 18.5196 30.1054 18.7071 30.2929C18.8946 30.4804 19 30.7348 19 31V35.586Z" fill="white"/>
</svg>
