<svg width="48" height="48" viewBox="0 0 48 48" fill="none" xmlns="http://www.w3.org/2000/svg">
<g clip-path="url(#clip0_35_88)">
<path d="M39.8461 36.4823C40.1542 37.5431 39.544 38.6527 38.4833 38.9608C37.4225 39.2689 36.3129 38.6587 36.0048 37.598L33.9285 30.4491C33.7014 29.6674 33.9708 28.8262 34.6096 28.3217L43.1696 21.5617C43.6758 21.162 43.9861 20.5275 43.9995 19.8415C44.0235 18.6153 43.118 17.6328 42.0205 17.6095L31.2807 17.3815C30.1764 17.3581 29.3002 16.4438 29.3236 15.3395C29.3471 14.2352 30.2613 13.359 31.3656 13.3824L42.1054 13.6104C45.4462 13.6813 48.0652 16.523 47.9988 19.9198C47.9621 21.7934 47.1009 23.554 45.6486 24.7009L38.1453 30.6264L39.8461 36.4823ZM15.2259 13.4123L18.3068 4.17991C19.3869 0.943292 22.8326 -0.794302 26.0006 0.352732C27.7415 0.983086 29.0982 2.3963 29.6934 4.17991L31.1812 8.6383C31.5309 9.68607 30.9649 10.8189 29.9171 11.1685C28.8694 11.5182 27.7365 10.9523 27.3869 9.90448L25.8991 5.44608C25.6874 4.8115 25.2193 4.324 24.6388 4.11379C23.6136 3.74261 22.4786 4.31499 22.1011 5.44608L18.5742 16.0151C18.3067 16.8166 17.5643 17.3636 16.7195 17.3815L5.97975 17.6095C5.38053 17.6222 4.81126 17.9243 4.43363 18.4432C3.72196 19.421 3.9085 20.8335 4.83068 21.5617L13.3907 28.3217C14.0295 28.8262 14.2988 29.6674 14.0718 30.4491L10.9612 41.159C10.7695 41.8187 10.8785 42.5352 11.2515 43.0935C11.8927 44.0534 13.1112 44.281 14.0091 43.6302L22.8264 37.2392C23.5266 36.7316 24.4737 36.7316 25.1739 37.2392L33.9912 43.6302C34.4887 43.9909 35.1051 44.0926 35.6756 43.9128C36.1425 43.7656 36.5361 43.4492 36.8007 43.012C37.3727 42.0671 38.6024 41.7648 39.5473 42.3368C40.4923 42.9087 40.7946 44.1385 40.2226 45.0834C39.4627 46.3388 38.2878 47.2835 36.8779 47.7278C35.0959 48.2894 33.1635 47.9706 31.6436 46.8689L24.0001 41.3286L16.3566 46.8689C13.6106 48.8593 9.81975 48.1512 7.9254 45.3155C6.89457 43.7724 6.59982 41.834 7.11991 40.0433L9.85499 30.6264L2.35163 24.7009C-0.26368 22.6355 -0.770703 18.7963 1.19956 16.0893C2.30679 14.568 4.03683 13.6498 5.89486 13.6104L15.2259 13.4123Z" fill="#FF0008"/>
</g>
<defs>
<clipPath id="clip0_35_88">
<rect width="48" height="48" fill="white"/>
</clipPath>
</defs>
</svg>
