<svg width="48" height="48" viewBox="0 0 48 48" fill="none" xmlns="http://www.w3.org/2000/svg">
<g clip-path="url(#clip0_35_81)">
<path d="M32.8284 18L25.4142 25.4142C24.6332 26.1953 23.3668 26.1953 22.5858 25.4142C21.8047 24.6332 21.8047 23.3668 22.5858 22.5858L30 15.1716V8C30 6.89543 30.8954 6 32 6C33.1046 6 34 6.89543 34 8V14H40C41.1046 14 42 14.8954 42 16C42 17.1046 41.1046 18 40 18H32.8284ZM24 4C25.1046 4 26 4.89543 26 6C26 7.10457 25.1046 8 24 8C15.1634 8 8 15.1634 8 24C8 32.8366 15.1634 40 24 40C32.8366 40 40 32.8366 40 24C40 22.8954 40.8954 22 42 22C43.1046 22 44 22.8954 44 24C44 35.0457 35.0457 44 24 44C12.9543 44 4 35.0457 4 24C4 12.9543 12.9543 4 24 4ZM24 12C25.1046 12 26 12.8954 26 14C26 15.1046 25.1046 16 24 16C19.5817 16 16 19.5817 16 24C16 28.4183 19.5817 32 24 32C28.4183 32 32 28.4183 32 24C32 22.8954 32.8954 22 34 22C35.1046 22 36 22.8954 36 24C36 30.6274 30.6274 36 24 36C17.3726 36 12 30.6274 12 24C12 17.3726 17.3726 12 24 12ZM40 8H46C47.1046 8 48 8.89543 48 10C48 11.1046 47.1046 12 46 12H38C36.8954 12 36 11.1046 36 10V2C36 0.89543 36.8954 0 38 0C39.1046 0 40 0.89543 40 2V8ZM40.5858 43.4142C39.8047 42.6332 39.8047 41.3668 40.5858 40.5858C41.3668 39.8047 42.6332 39.8047 43.4142 40.5858L47.4142 44.5858C48.1953 45.3668 48.1953 46.6332 47.4142 47.4142C46.6332 48.1953 45.3668 48.1953 44.5858 47.4142L40.5858 43.4142ZM3.41421 47.4142C2.63317 48.1953 1.36684 48.1953 0.585786 47.4142C-0.195262 46.6332 -0.195262 45.3668 0.585786 44.5858L4.58579 40.5858C5.36684 39.8047 6.63316 39.8047 7.41421 40.5858C8.19526 41.3668 8.19526 42.6332 7.41421 43.4142L3.41421 47.4142Z" fill="#FF0008"/>
</g>
<defs>
<clipPath id="clip0_35_81">
<rect width="48" height="48" fill="white"/>
</clipPath>
</defs>
</svg>
