<svg width="40" height="40" viewBox="0 0 40 40" fill="none" xmlns="http://www.w3.org/2000/svg">
<g clip-path="url(#clip0_35_245)">
<path d="M20 40C31.0457 40 40 31.0457 40 20C40 8.95431 31.0457 0 20 0C8.95431 0 0 8.95431 0 20C0 31.0457 8.95431 40 20 40Z" fill="#212121"/>
<path fill-rule="evenodd" clip-rule="evenodd" d="M16.6733 24.0683L25.9474 15.6992C26.3544 15.3379 25.8585 15.1618 25.3182 15.4894L13.8727 22.7103L8.92885 21.1672C7.8612 20.8403 7.85353 20.1067 9.16855 19.5792L28.4335 12.1507C29.3134 11.7512 30.1627 12.362 29.8268 13.7087L26.5459 29.1692C26.3168 30.2679 25.653 30.5306 24.7333 30.0232L19.7355 26.3308L17.3333 28.6667C17.0542 28.938 16.8333 29.1667 16.3333 29.1667L16.6736 24.0685L16.6733 24.0683Z" fill="#FF0008"/>
</g>
<defs>
<clipPath id="clip0_35_245">
<rect width="40" height="40" fill="white"/>
</clipPath>
</defs>
</svg>
