<svg width="20" height="20" viewBox="0 0 20 20" fill="none" xmlns="http://www.w3.org/2000/svg">
<path d="M15.0002 5L14.3328 15.0107C14.2743 15.8875 14.2451 16.3259 14.0557 16.6583C13.889 16.951 13.6375 17.1863 13.3344 17.3332C12.9901 17.5 12.5508 17.5 11.672 17.5H8.3283C7.44955 17.5 7.01018 17.5 6.66591 17.3332C6.36281 17.1863 6.11132 16.951 5.9446 16.6583C5.75522 16.3259 5.726 15.8875 5.66754 15.0107L5.00016 5M3.3335 5H16.6668M13.3335 5L13.108 4.32339C12.8894 3.66771 12.7801 3.33987 12.5774 3.09748C12.3984 2.88345 12.1686 2.71777 11.9089 2.61565C11.6149 2.5 11.2693 2.5 10.5781 2.5H9.42219C8.73104 2.5 8.38546 2.5 8.09142 2.61565C7.83176 2.71777 7.6019 2.88345 7.4229 3.09748C7.22021 3.33987 7.11093 3.66771 6.89236 4.32339L6.66683 5" stroke="white" stroke-width="1.5" stroke-linecap="round" stroke-linejoin="round"/>
</svg>
