<svg width="128" height="56" viewBox="0 0 128 56" fill="none" xmlns="http://www.w3.org/2000/svg">
<g clip-path="url(#clip0_120_227)">
<path fill-rule="evenodd" clip-rule="evenodd" d="M7.98109 45.4196H0L21.456 0L25.4669 8.39847L7.98109 45.4196Z" fill="#E41F14"/>
<path fill-rule="evenodd" clip-rule="evenodd" d="M35.0666 45.4196H43.0477L27.0414 11.5305L23.0271 19.929L28.3987 31.2966L18.6395 31.2491L15.141 37.0212L31.1371 37.1026L35.0666 45.4196Z" fill="white"/>
<path d="M116.225 45.0702L111.111 37.9204L105.824 45.0702H98.4539L107.426 33.3259L98.7457 21.7547H106.33L111.27 28.5413L116.34 21.7547H123.534L114.881 33.1528L123.897 45.0702H116.225ZM85.4541 26.5223C84.053 26.4778 82.683 26.9405 81.5958 27.8253C80.536 28.7276 79.8551 29.9962 79.6888 31.3781H91.1752C90.9977 30.0055 90.3184 28.7472 89.2682 27.8457C88.2003 26.9549 86.8441 26.4843 85.4541 26.5223ZM97.5445 33.4989C97.5445 33.5872 97.5003 34.1776 97.4155 35.3178H79.7702C80.0518 36.7068 80.8591 37.9335 82.0234 38.7416C83.3253 39.6139 84.8686 40.0543 86.4347 40.0006C87.5347 40.0203 88.6288 39.8363 89.6618 39.4576C90.6415 39.0746 91.5337 38.4975 92.2848 37.761L95.8817 41.6599C93.6851 44.1732 90.4784 45.4299 86.2617 45.4299C83.846 45.478 81.4535 44.9512 79.2816 43.8927C77.3463 42.9456 75.7226 41.4643 74.6022 39.6239C73.4895 37.7499 72.9197 35.6034 72.9564 33.4243C72.9249 31.257 73.487 29.1225 74.5818 27.2518C75.6465 25.4276 77.1989 23.9363 79.0644 22.9457C81.0038 21.9456 83.1523 21.4184 85.3343 21.4072C87.5164 21.396 89.6702 21.9011 91.6197 22.8812C93.4426 23.844 94.9502 25.3105 95.9632 27.1059C97.0477 29.0591 97.5935 31.2654 97.5445 33.4989ZM57.415 39.8682C58.2101 39.8938 59.0016 39.7507 59.7373 39.4483C60.4731 39.1459 61.1365 38.6911 61.6838 38.1139C62.7946 36.9443 63.35 35.3766 63.35 33.4107C63.35 31.4449 62.7946 29.8783 61.6838 28.711C60.5482 27.5854 59.014 26.9538 57.415 26.9538C55.8161 26.9538 54.2818 27.5854 53.1462 28.711C52.0332 29.8805 51.4767 31.4471 51.4767 33.4107C51.4767 35.3743 52.0332 36.942 53.1462 38.1139C53.6932 38.6916 54.3565 39.1468 55.0923 39.4492C55.8282 39.7516 56.6199 39.8944 57.415 39.8682ZM58.5823 21.4085C60.6512 21.3839 62.6907 21.8985 64.5003 22.9016C66.2602 23.8837 67.7087 25.3405 68.6809 27.1059C69.7238 29.0408 70.2464 31.2132 70.1977 33.4107C70.2469 35.6093 69.7242 37.783 68.6809 39.7189C67.7087 41.4843 66.2602 42.9411 64.5003 43.9232C62.6907 44.9263 60.6512 45.4409 58.5823 45.4163C55.6075 45.4163 53.2673 44.4775 51.5615 42.5998V55.9899H44.7919V21.7547H51.2392V24.432C52.9291 22.4164 55.3768 21.4085 58.5823 21.4085Z" fill="white"/>
<path d="M124.443 52.8104L123.147 49.6783L121.851 52.8104H124.443ZM125.041 54.2458H121.243L120.517 55.9899H118.58L122.224 47.812H124.094L127.748 55.9899H125.763L125.041 54.2458ZM108.183 47.8222H110.073V55.9899H108.183V47.8222ZM94.5108 54.446C95.2272 54.4849 95.9302 54.2413 96.4688 53.7673C96.9372 53.2648 97.1978 52.6033 97.1978 51.9162C97.1978 51.2292 96.9372 50.5677 96.4688 50.0652C95.9295 49.5925 95.227 49.349 94.5108 49.3865H92.7836V54.4561L94.5108 54.446ZM90.8902 47.8222H94.6058C95.4194 47.8063 96.2255 47.9794 96.9608 48.3278C97.6155 48.6446 98.1663 49.1413 98.5489 49.7598C98.9204 50.4153 99.1156 51.156 99.1156 51.9095C99.1156 52.6629 98.9204 53.4036 98.5489 54.0591C98.1663 54.6776 97.6155 55.1743 96.9608 55.4911C96.2263 55.8422 95.4198 56.0166 94.6058 56.0001H90.8902V47.8222ZM81.7282 54.4799V55.9899H75.4098V47.812H81.5891V49.3288H77.2897V51.1069H81.1004V52.5966H77.2897V54.4901L81.7282 54.4799ZM64.0558 55.9899V51.0832L61.6499 55.1246H60.7982L58.4025 51.1884V55.9899H56.6278V47.812H58.1921L61.2461 52.902L64.2594 47.812H65.8135L65.8305 55.9899H64.0558Z" fill="#E41F14"/>
</g>
<defs>
<clipPath id="clip0_120_227">
<rect width="127.748" height="56" fill="white"/>
</clipPath>
</defs>
</svg>
