<svg width="128" height="56" viewBox="0 0 128 56" fill="none" xmlns="http://www.w3.org/2000/svg">
<g clip-path="url(#clip0_120_232)">
<path fill-rule="evenodd" clip-rule="evenodd" d="M7.98109 45.4196H0L21.456 0L25.4669 8.39847L7.98109 45.4196Z" fill="#E41F14"/>
<path fill-rule="evenodd" clip-rule="evenodd" d="M35.0666 45.4196H43.0477L27.0414 11.5305L23.0271 19.929L28.3987 31.2966L18.6395 31.2491L15.141 37.0212L31.1371 37.1026L35.0666 45.4196Z" fill="#E41F14"/>
<path d="M116.225 45.0701L111.111 37.9204L105.824 45.0701H98.4539L107.426 33.3258L98.7457 21.7546H106.33L111.27 28.5412L116.34 21.7546H123.534L114.881 33.1528L123.897 45.0701H116.225ZM85.4541 26.5222C84.053 26.4777 82.683 26.9404 81.5958 27.8253C80.536 28.7276 79.8551 29.9961 79.6888 31.3781H91.1752C90.9977 30.0054 90.3184 28.7471 89.2682 27.8456C88.2003 26.9548 86.8441 26.4843 85.4541 26.5222ZM97.5445 33.4989C97.5445 33.5871 97.5003 34.1776 97.4155 35.3177H79.7702C80.0518 36.7068 80.8591 37.9334 82.0234 38.7416C83.3253 39.6138 84.8686 40.0542 86.4347 40.0005C87.5347 40.0203 88.6288 39.8362 89.6618 39.4576C90.6415 39.0746 91.5337 38.4974 92.2848 37.7609L95.8817 41.6598C93.6851 44.1731 90.4784 45.4298 86.2617 45.4298C83.846 45.478 81.4535 44.9511 79.2816 43.8926C77.3463 42.9455 75.7226 41.4643 74.6022 39.6238C73.4895 37.7498 72.9197 35.6034 72.9564 33.4242C72.9249 31.257 73.487 29.1224 74.5818 27.2518C75.6465 25.4275 77.1989 23.9363 79.0644 22.9457C81.0038 21.9455 83.1523 21.4183 85.3343 21.4071C87.5164 21.3959 89.6702 21.901 91.6197 22.8812C93.4426 23.844 94.9502 25.3104 95.9632 27.1059C97.0477 29.059 97.5935 31.2654 97.5445 33.4989ZM57.415 39.8682C58.2101 39.8937 59.0016 39.7506 59.7373 39.4482C60.4731 39.1459 61.1365 38.6911 61.6838 38.1138C62.7946 36.9442 63.35 35.3765 63.35 33.4107C63.35 31.4448 62.7946 29.8782 61.6838 28.7109C60.5482 27.5853 59.014 26.9538 57.415 26.9538C55.8161 26.9538 54.2818 27.5853 53.1462 28.7109C52.0332 29.8805 51.4767 31.4471 51.4767 33.4107C51.4767 35.3743 52.0332 36.942 53.1462 38.1138C53.6932 38.6916 54.3565 39.1467 55.0923 39.4491C55.8282 39.7516 56.6199 39.8944 57.415 39.8682ZM58.5823 21.4085C60.6512 21.3839 62.6907 21.8984 64.5003 22.9015C66.2602 23.8837 67.7087 25.3405 68.6809 27.1059C69.7238 29.0407 70.2464 31.2132 70.1977 33.4107C70.2469 35.6093 69.7242 37.7829 68.6809 39.7188C67.7087 41.4842 66.2602 42.941 64.5003 43.9232C62.6907 44.9263 60.6512 45.4408 58.5823 45.4162C55.6075 45.4162 53.2673 44.4774 51.5615 42.5998V55.9898H44.7919V21.7546H51.2392V24.4319C52.9291 22.4163 55.3768 21.4085 58.5823 21.4085Z" fill="#E41F14"/>
<path d="M124.443 52.8103L123.147 49.6782L121.851 52.8103H124.443ZM125.041 54.2456H121.243L120.517 55.9898H118.58L122.224 47.8119H124.094L127.748 55.9898H125.763L125.041 54.2456ZM108.183 47.8221H110.073V55.9898H108.183V47.8221ZM94.5108 54.4458C95.2272 54.4848 95.9302 54.2411 96.4688 53.7672C96.9372 53.2646 97.1978 52.6031 97.1978 51.9161C97.1978 51.2291 96.9372 50.5676 96.4688 50.0651C95.9295 49.5924 95.227 49.3489 94.5108 49.3864H92.7836V54.456L94.5108 54.4458ZM90.8902 47.8221H94.6058C95.4194 47.8062 96.2255 47.9792 96.9608 48.3277C97.6155 48.6444 98.1663 49.1412 98.5489 49.7597C98.9204 50.4152 99.1156 51.1558 99.1156 51.9093C99.1156 52.6628 98.9204 53.4034 98.5489 54.059C98.1663 54.6775 97.6155 55.1742 96.9608 55.491C96.2263 55.8421 95.4198 56.0164 94.6058 56H90.8902V47.8221ZM81.7282 54.4798V55.9898H75.4098V47.8119H81.5891V49.3287H77.2897V51.1068H81.1004V52.5965H77.2897V54.49L81.7282 54.4798ZM64.0558 55.9898V51.0831L61.6499 55.1245H60.7982L58.4025 51.1882V55.9898H56.6278V47.8119H58.1921L61.2461 52.9019L64.2594 47.8119H65.8135L65.8305 55.9898H64.0558Z" fill="#E41F14"/>
</g>
<defs>
<clipPath id="clip0_120_232">
<rect width="127.748" height="56" fill="white"/>
</clipPath>
</defs>
</svg>
